<svg fill="none" height="32" viewBox="0 0 32 32" width="32" xmlns="http://www.w3.org/2000/svg" xmlns:xlink="http://www.w3.org/1999/xlink"><clipPath id="a"><path d="m0 0h32v32h-32z"/></clipPath><g clip-path="url(#a)"><path clip-rule="evenodd" d="m33 18.4906c3.627-2.5299 6-6.7331 6-11.4906 0-7.731987-6.268-14-14-14-4.7575 0-8.9607 2.37303-11.4906 6h.4906 2.0556c2.1973-2.455 5.3904-4 8.9444-4 6.6274 0 12 5.372583 12 12 0 3.554-1.545 6.7471-4 8.9444v2.0556zm-3.909.6004-.6051-.6051c-1.1032.3343-2.2736.5141-3.4859.5141-6.6274 0-12-5.3726-12-12 0-1.21235.1798-2.3827.5141-3.48586l-.7598-.75982c-.3299-.28526-.7601-.45781-1.2305-.45781-.2414 0-.4722.04545-.6843.12825-4.6432 2.27896-7.8395 7.05383-7.8395 12.57524 0 7.732 6.26801 14 14 14 5.4685 0 10.2047-3.1353 12.509-7.7064h-.0008c.1197-.2476.1868-.5253.1868-.8187 0-.5461-.2325-1.0379-.604-1.3817zm-24.091-4.091c0-4.5346 2.51521-8.48177 6.2266-10.52245-.1488.81823-.2266 1.66126-.2266 2.52245v-.00073c-2.42889 1.82441-4 4.72913-4 8.00073 0 5.5228 4.4772 10 10 10 3.2716 0 6.1763-1.5711 8.0007-4h-.0007c.8612 0 1.7042-.0778 2.5224-.2266-2.0406 3.7114-5.9878 6.2266-10.5224 6.2266-6.6274 0-12-5.3726-12-12zm4 0c0-2.1445.84379-4.0919 2.2175-5.52836.1479.83046.3691 1.63556.6565 2.40836-.5545.9091-.874 1.9772-.874 3.12 0 3.3137 2.6863 6 6 6 1.1428 0 2.2109-.3195 3.12-.874.7728.2874 1.5779.5086 2.4084.6565-1.4365 1.3737-3.3839 2.2175-5.5284 2.2175-4.4183 0-8-3.5817-8-8zm4.0589-.6879c1.156 1.8837 2.7452 3.473 4.629 4.629-.2235.0387-.4533.0589-.6879.0589-2.2091 0-4-1.7909-4-4 0-.2346.0202-.4644.0589-.6879zm19.9411-1.3111c1.2558-1.6715 2-3.74935 2-6.001s-.7442-4.32949-2-6.000976v6.000976zm-8-14.001h6.001c-1.6715-1.25582-3.7494-2-6.001-2s-4.3295.74418-6.001 2zm-9.8325 6.16752c-.11.59407-.1675 1.20656-.1675 1.83248 0 5.5228 4.4772 10 10 10 .6259 0 1.2384-.0575 1.8325-.1675l-1.8325-1.8325c-4.4183 0-8-3.5817-8-8zm7.2497 7.24968c-1.2387-.5917-2.2427-1.5957-2.8344-2.83437z" fill="#000" fill-rule="evenodd"/></g></svg>